<mxfile host="app.diagrams.net" modified="2023-07-17T01:09:57.528Z" agent="Mozilla/5.0 (Macintosh; Intel Mac OS X 10_15_7) AppleWebKit/537.36 (KHTML, like Gecko) Chrome/114.0.0.0 Safari/537.36" etag="C2za4nlsAWsa_Oj29C5y" version="21.6.2" type="github" pages="6">
  <diagram id="e4scFoFF_F-a7bMBpBIw" name="第 1 页">
    <mxGraphModel dx="1194" dy="660" grid="1" gridSize="10" guides="1" tooltips="1" connect="1" arrows="1" fold="1" page="1" pageScale="1" pageWidth="827" pageHeight="1169" math="0" shadow="0">
      <root>
        <mxCell id="0" />
        <mxCell id="1" parent="0" />
        <mxCell id="BxiIMC6btonzShXlDcem-1" value="" style="rounded=1;whiteSpace=wrap;html=1;fontSize=12;glass=0;strokeWidth=1;shadow=0;fillColor=#dae8fc;strokeColor=#6c8ebf;" parent="1" vertex="1">
          <mxGeometry x="190" y="467" width="130" height="166" as="geometry" />
        </mxCell>
        <mxCell id="BxiIMC6btonzShXlDcem-2" value="" style="rounded=1;whiteSpace=wrap;html=1;fontSize=12;glass=0;strokeWidth=1;shadow=0;fillColor=#d5e8d4;strokeColor=#82b366;" parent="1" vertex="1">
          <mxGeometry x="190" y="645" width="400" height="50" as="geometry" />
        </mxCell>
        <mxCell id="BxiIMC6btonzShXlDcem-3" value="直播" style="rounded=1;whiteSpace=wrap;html=1;fontSize=12;glass=0;strokeWidth=1;shadow=0;" parent="1" vertex="1">
          <mxGeometry x="204" y="660" width="110" height="20" as="geometry" />
        </mxCell>
        <mxCell id="BxiIMC6btonzShXlDcem-4" value="播放器" style="rounded=1;whiteSpace=wrap;html=1;fontSize=12;glass=0;strokeWidth=1;shadow=0;fillColor=#f5f5f5;strokeColor=#666666;fontColor=#333333;" parent="1" vertex="1">
          <mxGeometry x="190" y="711" width="400" height="30" as="geometry" />
        </mxCell>
        <mxCell id="BxiIMC6btonzShXlDcem-5" value="回放" style="rounded=1;whiteSpace=wrap;html=1;fontSize=12;glass=0;strokeWidth=1;shadow=0;" parent="1" vertex="1">
          <mxGeometry x="335" y="660" width="110" height="20" as="geometry" />
        </mxCell>
        <mxCell id="BxiIMC6btonzShXlDcem-6" value="左右自动贴边" style="rounded=1;whiteSpace=wrap;html=1;fontSize=12;glass=0;strokeWidth=1;shadow=0;" parent="1" vertex="1">
          <mxGeometry x="200" y="515" width="110" height="20" as="geometry" />
        </mxCell>
        <mxCell id="BxiIMC6btonzShXlDcem-7" value="" style="rounded=1;whiteSpace=wrap;html=1;fontSize=12;glass=0;strokeWidth=1;shadow=0;fillColor=#dae8fc;strokeColor=#6c8ebf;" parent="1" vertex="1">
          <mxGeometry x="334" y="469" width="116" height="164" as="geometry" />
        </mxCell>
        <mxCell id="BxiIMC6btonzShXlDcem-8" value="贴边模块" style="text;strokeColor=none;align=center;fillColor=none;html=1;verticalAlign=middle;whiteSpace=wrap;rounded=0;" parent="1" vertex="1">
          <mxGeometry x="229" y="482" width="60" height="30" as="geometry" />
        </mxCell>
        <mxCell id="BxiIMC6btonzShXlDcem-9" value="贴边隐藏小窗" style="rounded=1;whiteSpace=wrap;html=1;fontSize=12;glass=0;strokeWidth=1;shadow=0;" parent="1" vertex="1">
          <mxGeometry x="200" y="543" width="110" height="20" as="geometry" />
        </mxCell>
        <mxCell id="BxiIMC6btonzShXlDcem-10" value="装饰模块" style="text;strokeColor=none;align=center;fillColor=none;html=1;verticalAlign=middle;whiteSpace=wrap;rounded=0;" parent="1" vertex="1">
          <mxGeometry x="363" y="482" width="60" height="30" as="geometry" />
        </mxCell>
        <mxCell id="BxiIMC6btonzShXlDcem-11" value="预告样式" style="rounded=1;whiteSpace=wrap;html=1;fontSize=12;glass=0;strokeWidth=1;shadow=0;" parent="1" vertex="1">
          <mxGeometry x="340" y="515" width="100" height="20" as="geometry" />
        </mxCell>
        <mxCell id="BxiIMC6btonzShXlDcem-12" value="利益点样式" style="rounded=1;whiteSpace=wrap;html=1;fontSize=12;glass=0;strokeWidth=1;shadow=0;" parent="1" vertex="1">
          <mxGeometry x="340" y="545" width="100" height="20" as="geometry" />
        </mxCell>
        <mxCell id="BxiIMC6btonzShXlDcem-13" value="普通样式" style="rounded=1;whiteSpace=wrap;html=1;fontSize=12;glass=0;strokeWidth=1;shadow=0;" parent="1" vertex="1">
          <mxGeometry x="341" y="571" width="100" height="20" as="geometry" />
        </mxCell>
        <mxCell id="BxiIMC6btonzShXlDcem-14" value="" style="rounded=1;whiteSpace=wrap;html=1;fontSize=12;glass=0;strokeWidth=1;shadow=0;fillColor=#dae8fc;strokeColor=#6c8ebf;" parent="1" vertex="1">
          <mxGeometry x="463" y="469" width="127" height="91" as="geometry" />
        </mxCell>
        <mxCell id="BxiIMC6btonzShXlDcem-15" value="层级设置" style="text;strokeColor=none;align=center;fillColor=none;html=1;verticalAlign=middle;whiteSpace=wrap;rounded=0;" parent="1" vertex="1">
          <mxGeometry x="497" y="470" width="60" height="30" as="geometry" />
        </mxCell>
        <mxCell id="BxiIMC6btonzShXlDcem-16" value="系统层级小窗" style="rounded=1;whiteSpace=wrap;html=1;fontSize=12;glass=0;strokeWidth=1;shadow=0;" parent="1" vertex="1">
          <mxGeometry x="478.5" y="499" width="93" height="20" as="geometry" />
        </mxCell>
        <mxCell id="BxiIMC6btonzShXlDcem-17" value="页面层级设置" style="rounded=1;whiteSpace=wrap;html=1;fontSize=12;glass=0;strokeWidth=1;shadow=0;" parent="1" vertex="1">
          <mxGeometry x="479.5" y="527" width="93" height="20" as="geometry" />
        </mxCell>
        <mxCell id="BxiIMC6btonzShXlDcem-19" value="底层" style="rounded=1;whiteSpace=wrap;html=1;fontSize=12;glass=0;strokeWidth=1;shadow=0;fillColor=#f5f5f5;strokeColor=#666666;fontColor=#333333;" parent="1" vertex="1">
          <mxGeometry x="144" y="711" width="30" height="30" as="geometry" />
        </mxCell>
        <mxCell id="BxiIMC6btonzShXlDcem-20" value="播放业务层" style="rounded=1;whiteSpace=wrap;html=1;fontSize=12;glass=0;strokeWidth=1;shadow=0;fillColor=#d5e8d4;strokeColor=#82b366;" parent="1" vertex="1">
          <mxGeometry x="144" y="645" width="30" height="51" as="geometry" />
        </mxCell>
        <mxCell id="BxiIMC6btonzShXlDcem-21" value="小窗业务层" style="rounded=1;whiteSpace=wrap;html=1;fontSize=12;glass=0;strokeWidth=1;shadow=0;fillColor=#dae8fc;strokeColor=#6c8ebf;" parent="1" vertex="1">
          <mxGeometry x="144" y="467" width="30" height="166" as="geometry" />
        </mxCell>
        <mxCell id="BxiIMC6btonzShXlDcem-22" value="小窗配置层" style="rounded=1;whiteSpace=wrap;html=1;fontSize=12;glass=0;strokeWidth=1;shadow=0;fillColor=#e1d5e7;strokeColor=#9673a6;" parent="1" vertex="1">
          <mxGeometry x="144" y="245" width="30" height="150" as="geometry" />
        </mxCell>
        <mxCell id="BxiIMC6btonzShXlDcem-23" value="" style="rounded=1;whiteSpace=wrap;html=1;fontSize=12;glass=0;strokeWidth=1;shadow=0;fillColor=#e1d5e7;strokeColor=#9673a6;" parent="1" vertex="1">
          <mxGeometry x="192" y="245" width="402" height="150" as="geometry" />
        </mxCell>
        <mxCell id="BxiIMC6btonzShXlDcem-24" value="自定义配置" style="text;strokeColor=none;align=center;fillColor=none;html=1;verticalAlign=middle;whiteSpace=wrap;rounded=0;" parent="1" vertex="1">
          <mxGeometry x="353" y="250" width="68" height="20" as="geometry" />
        </mxCell>
        <mxCell id="BxiIMC6btonzShXlDcem-25" value="普通中样式小窗" style="rounded=1;whiteSpace=wrap;html=1;fontSize=12;glass=0;strokeWidth=1;shadow=0;" parent="1" vertex="1">
          <mxGeometry x="345" y="275" width="90" height="30" as="geometry" />
        </mxCell>
        <mxCell id="BxiIMC6btonzShXlDcem-26" value="大样式小窗" style="rounded=1;whiteSpace=wrap;html=1;fontSize=12;glass=0;strokeWidth=1;shadow=0;" parent="1" vertex="1">
          <mxGeometry x="464" y="275" width="90" height="30" as="geometry" />
        </mxCell>
        <mxCell id="BxiIMC6btonzShXlDcem-28" value="小样式小窗" style="rounded=1;whiteSpace=wrap;html=1;fontSize=12;glass=0;strokeWidth=1;shadow=0;" parent="1" vertex="1">
          <mxGeometry x="230" y="275" width="90" height="30" as="geometry" />
        </mxCell>
        <mxCell id="BxiIMC6btonzShXlDcem-38" value="" style="edgeStyle=orthogonalEdgeStyle;orthogonalLoop=1;jettySize=auto;html=1;rounded=0;jumpStyle=none;shadow=0;fillColor=#f8cecc;strokeColor=#000000;strokeWidth=3;endArrow=block;endFill=1;" parent="1" source="BxiIMC6btonzShXlDcem-29" target="BxiIMC6btonzShXlDcem-36" edge="1">
          <mxGeometry relative="1" as="geometry">
            <Array as="points">
              <mxPoint x="390" y="140" />
              <mxPoint x="390" y="140" />
            </Array>
          </mxGeometry>
        </mxCell>
        <mxCell id="BxiIMC6btonzShXlDcem-29" value="业务调用方" style="rounded=1;whiteSpace=wrap;html=1;fontSize=12;glass=0;strokeWidth=1;shadow=0;fillColor=#ffe6cc;strokeColor=#d79b00;" parent="1" vertex="1">
          <mxGeometry x="144" y="90" width="450" height="30" as="geometry" />
        </mxCell>
        <mxCell id="BxiIMC6btonzShXlDcem-34" value="讲解片段" style="rounded=1;whiteSpace=wrap;html=1;fontSize=12;glass=0;strokeWidth=1;shadow=0;" parent="1" vertex="1">
          <mxGeometry x="468.5" y="660" width="110" height="20" as="geometry" />
        </mxCell>
        <mxCell id="BxiIMC6btonzShXlDcem-35" value="H5调用" style="rounded=1;whiteSpace=wrap;html=1;fontSize=12;glass=0;strokeWidth=1;shadow=0;fillColor=#ffe6cc;strokeColor=#d79b00;" parent="1" vertex="1">
          <mxGeometry x="190" y="147" width="170" height="30" as="geometry" />
        </mxCell>
        <mxCell id="BxiIMC6btonzShXlDcem-36" value="原生调用" style="rounded=1;whiteSpace=wrap;html=1;fontSize=12;glass=0;strokeWidth=1;shadow=0;fillColor=#ffe6cc;strokeColor=#d79b00;" parent="1" vertex="1">
          <mxGeometry x="190" y="200" width="400" height="30" as="geometry" />
        </mxCell>
        <mxCell id="BxiIMC6btonzShXlDcem-37" value="调用层" style="rounded=1;whiteSpace=wrap;html=1;fontSize=12;glass=0;strokeWidth=1;shadow=0;fillColor=#ffe6cc;strokeColor=#d79b00;" parent="1" vertex="1">
          <mxGeometry x="144" y="130" width="30" height="100" as="geometry" />
        </mxCell>
        <mxCell id="BxiIMC6btonzShXlDcem-41" value="" style="edgeStyle=orthogonalEdgeStyle;orthogonalLoop=1;jettySize=auto;html=1;jumpStyle=none;shadow=0;fillColor=#f8cecc;strokeColor=#000000;strokeWidth=3;exitX=0.268;exitY=1.045;exitDx=0;exitDy=0;exitPerimeter=0;entryX=0.437;entryY=-0.01;entryDx=0;entryDy=0;entryPerimeter=0;rounded=1;endSize=1;endArrow=block;endFill=1;" parent="1" source="BxiIMC6btonzShXlDcem-29" target="BxiIMC6btonzShXlDcem-35" edge="1">
          <mxGeometry relative="1" as="geometry">
            <mxPoint x="400" y="130" as="sourcePoint" />
            <mxPoint x="264" y="140" as="targetPoint" />
            <Array as="points">
              <mxPoint x="265" y="120" />
              <mxPoint x="264" y="120" />
            </Array>
          </mxGeometry>
        </mxCell>
        <mxCell id="BxiIMC6btonzShXlDcem-42" value="" style="edgeStyle=orthogonalEdgeStyle;orthogonalLoop=1;jettySize=auto;html=1;rounded=0;jumpStyle=none;shadow=0;fillColor=#f8cecc;strokeColor=#000000;strokeWidth=3;exitX=0.432;exitY=1.003;exitDx=0;exitDy=0;exitPerimeter=0;entryX=0.183;entryY=-0.004;entryDx=0;entryDy=0;entryPerimeter=0;endSize=1;endArrow=block;endFill=1;" parent="1" source="BxiIMC6btonzShXlDcem-35" target="BxiIMC6btonzShXlDcem-36" edge="1">
          <mxGeometry relative="1" as="geometry">
            <mxPoint x="263.5" y="178" as="sourcePoint" />
            <mxPoint x="262.5" y="204" as="targetPoint" />
            <Array as="points">
              <mxPoint x="263" y="177" />
            </Array>
          </mxGeometry>
        </mxCell>
        <mxCell id="BxiIMC6btonzShXlDcem-44" value="" style="rounded=1;whiteSpace=wrap;html=1;fontSize=12;glass=0;strokeWidth=1;shadow=0;fillColor=#E1D5F7;strokeColor=#9673B6;" parent="1" vertex="1">
          <mxGeometry x="230" y="315" width="324" height="70" as="geometry" />
        </mxCell>
        <mxCell id="BxiIMC6btonzShXlDcem-46" value="" style="shape=flexArrow;endArrow=classic;html=1;rounded=0;endWidth=5.543017798780787;endSize=1.040096618357488;width=4.879227053140097;exitX=0.545;exitY=0.989;exitDx=0;exitDy=0;exitPerimeter=0;strokeWidth=0.5;fillColor=default;strokeColor=none;" parent="1" edge="1">
          <mxGeometry width="50" height="50" relative="1" as="geometry">
            <mxPoint x="274.04999999999995" y="304.66999999999996" as="sourcePoint" />
            <mxPoint x="274" y="315" as="targetPoint" />
            <Array as="points">
              <mxPoint x="274" y="305" />
            </Array>
          </mxGeometry>
        </mxCell>
        <mxCell id="BxiIMC6btonzShXlDcem-49" value="&lt;font style=&quot;font-size: 10px;&quot;&gt;窗体大小&lt;/font&gt;" style="rounded=1;whiteSpace=wrap;html=1;fontSize=12;glass=0;strokeWidth=1;shadow=0;" parent="1" vertex="1">
          <mxGeometry x="246.75" y="322.5" width="56.5" height="15" as="geometry" />
        </mxCell>
        <mxCell id="BxiIMC6btonzShXlDcem-52" value="" style="shape=flexArrow;endArrow=classic;html=1;rounded=0;endWidth=5.543017798780787;endSize=1.040096618357488;width=4.879227053140097;exitX=0.545;exitY=0.989;exitDx=0;exitDy=0;exitPerimeter=0;strokeWidth=0.5;fillColor=default;strokeColor=none;" parent="1" edge="1">
          <mxGeometry width="50" height="50" relative="1" as="geometry">
            <mxPoint x="389.96999999999997" y="304.66999999999996" as="sourcePoint" />
            <mxPoint x="389.92" y="315" as="targetPoint" />
            <Array as="points">
              <mxPoint x="389.92" y="305" />
            </Array>
          </mxGeometry>
        </mxCell>
        <mxCell id="BxiIMC6btonzShXlDcem-53" value="" style="shape=flexArrow;endArrow=classic;html=1;rounded=0;endWidth=5.543017798780787;endSize=1.040096618357488;width=4.879227053140097;exitX=0.545;exitY=0.989;exitDx=0;exitDy=0;exitPerimeter=0;strokeWidth=0.5;fillColor=default;strokeColor=none;" parent="1" edge="1">
          <mxGeometry width="50" height="50" relative="1" as="geometry">
            <mxPoint x="508.9699999999999" y="304.99999999999994" as="sourcePoint" />
            <mxPoint x="508.91999999999996" y="315.33" as="targetPoint" />
            <Array as="points">
              <mxPoint x="508.91999999999996" y="305.33" />
            </Array>
          </mxGeometry>
        </mxCell>
        <mxCell id="BxiIMC6btonzShXlDcem-54" value="&lt;font style=&quot;font-size: 10px;&quot;&gt;边框样式&lt;/font&gt;" style="rounded=1;whiteSpace=wrap;html=1;fontSize=12;glass=0;strokeWidth=1;shadow=0;" parent="1" vertex="1">
          <mxGeometry x="312" y="322.5" width="56.5" height="15" as="geometry" />
        </mxCell>
        <mxCell id="BxiIMC6btonzShXlDcem-55" value="&lt;span style=&quot;font-size: 10px;&quot;&gt;利益点&lt;/span&gt;" style="rounded=1;whiteSpace=wrap;html=1;fontSize=12;glass=0;strokeWidth=1;shadow=0;" parent="1" vertex="1">
          <mxGeometry x="375.5" y="322.5" width="54.5" height="15" as="geometry" />
        </mxCell>
        <mxCell id="BxiIMC6btonzShXlDcem-58" value="&lt;span style=&quot;font-size: 10px;&quot;&gt;静音按钮样式&lt;/span&gt;" style="rounded=1;whiteSpace=wrap;html=1;fontSize=12;glass=0;strokeWidth=1;shadow=0;" parent="1" vertex="1">
          <mxGeometry x="436" y="322.5" width="98" height="15" as="geometry" />
        </mxCell>
        <mxCell id="BxiIMC6btonzShXlDcem-59" value="&lt;span style=&quot;font-size: 10px;&quot;&gt;播放状态样式&lt;/span&gt;" style="rounded=1;whiteSpace=wrap;html=1;fontSize=12;glass=0;strokeWidth=1;shadow=0;" parent="1" vertex="1">
          <mxGeometry x="246.75" y="345" width="98" height="15" as="geometry" />
        </mxCell>
        <mxCell id="BxiIMC6btonzShXlDcem-60" value="&lt;span style=&quot;font-size: 10px;&quot;&gt;关闭按钮样式&lt;/span&gt;" style="rounded=1;whiteSpace=wrap;html=1;fontSize=12;glass=0;strokeWidth=1;shadow=0;" parent="1" vertex="1">
          <mxGeometry x="351" y="345" width="98" height="15" as="geometry" />
        </mxCell>
        <mxCell id="BxiIMC6btonzShXlDcem-61" value="&lt;font style=&quot;font-size: 10px;&quot;&gt;安全边距&lt;/font&gt;" style="rounded=1;whiteSpace=wrap;html=1;fontSize=12;glass=0;strokeWidth=1;shadow=0;" parent="1" vertex="1">
          <mxGeometry x="456.75" y="345" width="56.5" height="15" as="geometry" />
        </mxCell>
        <mxCell id="BxiIMC6btonzShXlDcem-62" value="&lt;font style=&quot;font-size: 10px;&quot;&gt;……&lt;/font&gt;" style="rounded=1;whiteSpace=wrap;html=1;fontSize=12;glass=0;strokeWidth=1;shadow=0;" parent="1" vertex="1">
          <mxGeometry x="245.75" y="365" width="56.5" height="15" as="geometry" />
        </mxCell>
        <mxCell id="BxiIMC6btonzShXlDcem-63" value="小窗数据获取" style="rounded=1;whiteSpace=wrap;html=1;fontSize=12;glass=0;strokeWidth=3;shadow=0;fillColor=#fff2cc;strokeColor=#d6b656;" parent="1" vertex="1">
          <mxGeometry x="144" y="416" width="450" height="40" as="geometry" />
        </mxCell>
        <mxCell id="BxiIMC6btonzShXlDcem-65" value="" style="edgeStyle=orthogonalEdgeStyle;rounded=0;orthogonalLoop=1;jettySize=auto;html=1;strokeWidth=3;endSize=1;targetPerimeterSpacing=1;jumpStyle=none;shadow=0;comic=0;enumerate=0;orthogonal=0;noJump=0;flowAnimation=0;deletable=1;cloneable=1;movable=1;bendable=1;backgroundOutline=0;metaEdit=0;editable=1;resizable=1;rotatable=1;locked=0;connectable=1;fixDash=0;snapToPoint=1;startFill=1;endFill=1;strokeColor=#000000;endArrow=block;entryX=1.003;entryY=0.444;entryDx=0;entryDy=0;entryPerimeter=0;ignoreEdge=0;fillColor=#f8cecc;exitX=0;exitY=0.524;exitDx=0;exitDy=0;exitPerimeter=0;" parent="1" source="BxiIMC6btonzShXlDcem-64" target="BxiIMC6btonzShXlDcem-63" edge="1">
          <mxGeometry relative="1" as="geometry">
            <mxPoint x="600" y="430" as="targetPoint" />
            <Array as="points" />
          </mxGeometry>
        </mxCell>
        <mxCell id="BxiIMC6btonzShXlDcem-64" value="服务端" style="rounded=1;whiteSpace=wrap;html=1;fontSize=12;glass=0;strokeWidth=3;shadow=0;fillColor=none;dashed=1;" parent="1" vertex="1">
          <mxGeometry x="640" y="360" width="90" height="140" as="geometry" />
        </mxCell>
        <mxCell id="BxiIMC6btonzShXlDcem-66" value="" style="orthogonalLoop=1;jettySize=auto;html=1;rounded=0;jumpStyle=none;shadow=0;fillColor=#f8cecc;strokeColor=#000000;strokeWidth=3;entryX=0.035;entryY=-0.024;entryDx=0;entryDy=0;entryPerimeter=0;endSize=1;endArrow=block;endFill=1;movable=1;resizable=1;rotatable=1;deletable=1;editable=1;locked=0;connectable=1;exitX=0.527;exitY=1.003;exitDx=0;exitDy=0;exitPerimeter=0;" parent="1" source="BxiIMC6btonzShXlDcem-22" target="BxiIMC6btonzShXlDcem-63" edge="1">
          <mxGeometry relative="1" as="geometry">
            <mxPoint x="160" y="400" as="sourcePoint" />
            <mxPoint x="155.77999999999997" y="416" as="targetPoint" />
          </mxGeometry>
        </mxCell>
        <mxCell id="BxiIMC6btonzShXlDcem-69" value="" style="edgeStyle=orthogonalEdgeStyle;orthogonalLoop=1;jettySize=auto;html=1;rounded=0;jumpStyle=none;shadow=0;fillColor=#f8cecc;strokeColor=#000000;strokeWidth=3;entryX=0.183;entryY=-0.004;entryDx=0;entryDy=0;entryPerimeter=0;endSize=1;endArrow=block;endFill=1;exitX=0.497;exitY=1.001;exitDx=0;exitDy=0;exitPerimeter=0;" parent="1" edge="1">
          <mxGeometry relative="1" as="geometry">
            <mxPoint x="159.06" y="230" as="sourcePoint" />
            <mxPoint x="158.83999999999997" y="245" as="targetPoint" />
            <Array as="points" />
          </mxGeometry>
        </mxCell>
        <mxCell id="BxiIMC6btonzShXlDcem-70" value="指定方向贴边隐藏" style="rounded=1;whiteSpace=wrap;html=1;fontSize=12;glass=0;strokeWidth=1;shadow=0;" parent="1" vertex="1">
          <mxGeometry x="200" y="571" width="110" height="20" as="geometry" />
        </mxCell>
        <mxCell id="BxiIMC6btonzShXlDcem-71" value="自定义样式" style="rounded=1;whiteSpace=wrap;html=1;fontSize=12;glass=0;strokeWidth=1;shadow=0;" parent="1" vertex="1">
          <mxGeometry x="341" y="599" width="100" height="20" as="geometry" />
        </mxCell>
        <mxCell id="BxiIMC6btonzShXlDcem-72" value="" style="edgeStyle=orthogonalEdgeStyle;orthogonalLoop=1;jettySize=auto;html=1;rounded=0;jumpStyle=none;shadow=0;fillColor=#f8cecc;strokeColor=#000000;strokeWidth=3;endSize=0;endArrow=block;endFill=1;movable=1;resizable=1;rotatable=1;deletable=1;editable=1;locked=0;connectable=1;entryX=0.536;entryY=-0.003;entryDx=0;entryDy=0;entryPerimeter=0;startSize=0;jumpSize=0;exitX=0.036;exitY=1.03;exitDx=0;exitDy=0;exitPerimeter=0;" parent="1" source="BxiIMC6btonzShXlDcem-63" target="BxiIMC6btonzShXlDcem-21" edge="1">
          <mxGeometry relative="1" as="geometry">
            <mxPoint x="155" y="460" as="sourcePoint" />
            <mxPoint x="158.9" y="470" as="targetPoint" />
            <Array as="points">
              <mxPoint x="160" y="457" />
            </Array>
          </mxGeometry>
        </mxCell>
        <mxCell id="BxiIMC6btonzShXlDcem-73" value="" style="orthogonalLoop=1;jettySize=auto;html=1;rounded=0;jumpStyle=none;shadow=0;fillColor=#f8cecc;strokeColor=#000000;strokeWidth=3;entryX=0.035;entryY=-0.024;entryDx=0;entryDy=0;entryPerimeter=0;endSize=0;endArrow=block;endFill=1;movable=1;resizable=1;rotatable=1;deletable=1;editable=1;locked=0;connectable=1;exitX=0.5;exitY=1;exitDx=0;exitDy=0;startSize=2;" parent="1" source="BxiIMC6btonzShXlDcem-21" edge="1">
          <mxGeometry relative="1" as="geometry">
            <mxPoint x="158.86" y="625" as="sourcePoint" />
            <mxPoint x="158.86" y="645" as="targetPoint" />
          </mxGeometry>
        </mxCell>
        <mxCell id="BxiIMC6btonzShXlDcem-74" value="" style="orthogonalLoop=1;jettySize=auto;html=1;rounded=0;jumpStyle=none;shadow=0;fillColor=#f8cecc;strokeColor=#000000;strokeWidth=3;entryX=0.035;entryY=-0.024;entryDx=0;entryDy=0;entryPerimeter=0;endSize=0;endArrow=block;endFill=1;movable=1;resizable=1;rotatable=1;deletable=1;editable=1;locked=0;connectable=1;exitX=0.503;exitY=1.009;exitDx=0;exitDy=0;startSize=2;exitPerimeter=0;" parent="1" source="BxiIMC6btonzShXlDcem-20" edge="1">
          <mxGeometry relative="1" as="geometry">
            <mxPoint x="159.06" y="699" as="sourcePoint" />
            <mxPoint x="158.92000000000002" y="711" as="targetPoint" />
          </mxGeometry>
        </mxCell>
        <mxCell id="BxiIMC6btonzShXlDcem-75" value="安全边距回弹" style="rounded=1;whiteSpace=wrap;html=1;fontSize=12;glass=0;strokeWidth=1;shadow=0;" parent="1" vertex="1">
          <mxGeometry x="201" y="600" width="110" height="20" as="geometry" />
        </mxCell>
        <mxCell id="BxiIMC6btonzShXlDcem-76" value="" style="rounded=1;whiteSpace=wrap;html=1;fontSize=12;glass=0;strokeWidth=1;shadow=0;fillColor=#dae8fc;strokeColor=#6c8ebf;" parent="1" vertex="1">
          <mxGeometry x="466.5" y="565" width="123.5" height="67" as="geometry" />
        </mxCell>
        <mxCell id="BxiIMC6btonzShXlDcem-77" value="显示设置" style="text;strokeColor=none;align=center;fillColor=none;html=1;verticalAlign=middle;whiteSpace=wrap;rounded=0;" parent="1" vertex="1">
          <mxGeometry x="497" y="565" width="64" height="20" as="geometry" />
        </mxCell>
        <mxCell id="BxiIMC6btonzShXlDcem-78" value="首帧显示" style="rounded=1;whiteSpace=wrap;html=1;fontSize=12;glass=0;strokeWidth=1;shadow=0;" parent="1" vertex="1">
          <mxGeometry x="482" y="583" width="93" height="20" as="geometry" />
        </mxCell>
        <mxCell id="BxiIMC6btonzShXlDcem-79" value="直接显示" style="rounded=1;whiteSpace=wrap;html=1;fontSize=12;glass=0;strokeWidth=1;shadow=0;" parent="1" vertex="1">
          <mxGeometry x="482.5" y="607" width="93" height="20" as="geometry" />
        </mxCell>
      </root>
    </mxGraphModel>
  </diagram>
  <diagram id="Gj3l0oce-Ssm1hmjemqc" name="第 2 页">
    <mxGraphModel dx="1837" dy="1015" grid="1" gridSize="10" guides="1" tooltips="1" connect="1" arrows="1" fold="1" page="1" pageScale="1" pageWidth="827" pageHeight="1169" math="0" shadow="0">
      <root>
        <mxCell id="0" />
        <mxCell id="1" parent="0" />
        <mxCell id="0sVo3lxxrPGnwrt0EkQT-1" value="" style="rounded=1;whiteSpace=wrap;html=1;" vertex="1" parent="1">
          <mxGeometry x="340" y="150" width="216" height="310" as="geometry" />
        </mxCell>
        <mxCell id="0sVo3lxxrPGnwrt0EkQT-2" value="小窗" style="rounded=1;whiteSpace=wrap;html=1;" vertex="1" parent="1">
          <mxGeometry x="369" y="350" width="51" height="90" as="geometry" />
        </mxCell>
        <mxCell id="0sVo3lxxrPGnwrt0EkQT-4" value="" style="endArrow=classic;startArrow=classic;html=1;rounded=0;exitX=-0.002;exitY=0.803;exitDx=0;exitDy=0;exitPerimeter=0;entryX=0.006;entryY=0.558;entryDx=0;entryDy=0;entryPerimeter=0;" edge="1" parent="1" source="0sVo3lxxrPGnwrt0EkQT-1" target="0sVo3lxxrPGnwrt0EkQT-2">
          <mxGeometry width="50" height="50" relative="1" as="geometry">
            <mxPoint x="390" y="370" as="sourcePoint" />
            <mxPoint x="440" y="320" as="targetPoint" />
          </mxGeometry>
        </mxCell>
        <mxCell id="0sVo3lxxrPGnwrt0EkQT-5" value="" style="endArrow=classic;html=1;rounded=0;" edge="1" parent="1">
          <mxGeometry width="50" height="50" relative="1" as="geometry">
            <mxPoint x="350" y="400" as="sourcePoint" />
            <mxPoint x="290" y="420" as="targetPoint" />
          </mxGeometry>
        </mxCell>
        <mxCell id="0sVo3lxxrPGnwrt0EkQT-7" value="&lt;font style=&quot;font-size: 26px;&quot;&gt;leftRightSafeDistance&lt;/font&gt;" style="text;strokeColor=none;align=center;fillColor=none;html=1;verticalAlign=middle;whiteSpace=wrap;rounded=0;" vertex="1" parent="1">
          <mxGeometry x="130" y="440" width="150" height="20" as="geometry" />
        </mxCell>
      </root>
    </mxGraphModel>
  </diagram>
  <diagram name="第 2 页 的副本" id="Xx4dHV8bzCiUZgWwGzCM">
    <mxGraphModel dx="884" dy="489" grid="1" gridSize="10" guides="1" tooltips="1" connect="1" arrows="1" fold="1" page="1" pageScale="1" pageWidth="827" pageHeight="1169" math="0" shadow="0">
      <root>
        <mxCell id="zxSvGnZNbxXNob_L4SS8-0" />
        <mxCell id="zxSvGnZNbxXNob_L4SS8-1" parent="zxSvGnZNbxXNob_L4SS8-0" />
        <mxCell id="zxSvGnZNbxXNob_L4SS8-2" value="&lt;font style=&quot;font-size: 26px;&quot;&gt;&lt;font style=&quot;font-size: 26px;&quot;&gt;Scre&lt;/font&gt;en&lt;/font&gt;" style="rounded=1;whiteSpace=wrap;html=1;" vertex="1" parent="zxSvGnZNbxXNob_L4SS8-1">
          <mxGeometry x="340" y="150" width="216" height="310" as="geometry" />
        </mxCell>
        <mxCell id="zxSvGnZNbxXNob_L4SS8-3" value="小窗" style="rounded=1;whiteSpace=wrap;html=1;" vertex="1" parent="zxSvGnZNbxXNob_L4SS8-1">
          <mxGeometry x="310" y="350" width="51" height="90" as="geometry" />
        </mxCell>
        <mxCell id="zxSvGnZNbxXNob_L4SS8-6" value="&lt;pre style=&quot;background-color: rgb(255, 255, 255); font-family: Menlo-Regular, monospace;&quot;&gt;&lt;font style=&quot;font-size: 17px;&quot;&gt;haflSmallWindowWidth&lt;/font&gt;&lt;/pre&gt;" style="text;strokeColor=none;align=center;fillColor=none;html=1;verticalAlign=middle;whiteSpace=wrap;rounded=0;" vertex="1" parent="zxSvGnZNbxXNob_L4SS8-1">
          <mxGeometry x="160" y="460" width="150" height="20" as="geometry" />
        </mxCell>
        <mxCell id="RuQTwfE8cLkP1HsGilDl-0" value="" style="endArrow=none;dashed=1;html=1;dashPattern=1 3;strokeWidth=2;rounded=0;entryX=0.5;entryY=0;entryDx=0;entryDy=0;exitX=0.476;exitY=1.002;exitDx=0;exitDy=0;exitPerimeter=0;" edge="1" parent="zxSvGnZNbxXNob_L4SS8-1" source="zxSvGnZNbxXNob_L4SS8-3" target="zxSvGnZNbxXNob_L4SS8-3">
          <mxGeometry width="50" height="50" relative="1" as="geometry">
            <mxPoint x="350" y="420" as="sourcePoint" />
            <mxPoint x="400" y="370" as="targetPoint" />
          </mxGeometry>
        </mxCell>
        <mxCell id="RuQTwfE8cLkP1HsGilDl-1" value="" style="endArrow=classic;startArrow=classic;html=1;rounded=0;" edge="1" parent="zxSvGnZNbxXNob_L4SS8-1">
          <mxGeometry width="50" height="50" relative="1" as="geometry">
            <mxPoint x="340" y="450" as="sourcePoint" />
            <mxPoint x="310" y="450" as="targetPoint" />
          </mxGeometry>
        </mxCell>
        <mxCell id="RuQTwfE8cLkP1HsGilDl-2" value="" style="endArrow=none;html=1;rounded=0;" edge="1" parent="zxSvGnZNbxXNob_L4SS8-1">
          <mxGeometry width="50" height="50" relative="1" as="geometry">
            <mxPoint x="310" y="455" as="sourcePoint" />
            <mxPoint x="310" y="445" as="targetPoint" />
          </mxGeometry>
        </mxCell>
        <mxCell id="RuQTwfE8cLkP1HsGilDl-3" value="" style="endArrow=none;html=1;rounded=0;" edge="1" parent="zxSvGnZNbxXNob_L4SS8-1">
          <mxGeometry width="50" height="50" relative="1" as="geometry">
            <mxPoint x="340" y="454" as="sourcePoint" />
            <mxPoint x="340" y="444" as="targetPoint" />
            <Array as="points">
              <mxPoint x="340" y="444" />
            </Array>
          </mxGeometry>
        </mxCell>
      </root>
    </mxGraphModel>
  </diagram>
  <diagram id="9vciDZmhBFjvDMOZmSKO" name="第 3 页">
    <mxGraphModel dx="1493" dy="825" grid="1" gridSize="10" guides="1" tooltips="1" connect="1" arrows="1" fold="1" page="1" pageScale="1" pageWidth="827" pageHeight="1169" math="0" shadow="0">
      <root>
        <mxCell id="0" />
        <mxCell id="1" parent="0" />
        <mxCell id="uRXTTBxz6ctKdjCjnKZ5-1" value="" style="rounded=1;whiteSpace=wrap;html=1;fillColor=#eeeeee;strokeColor=#B3B3B3;dashed=1;" vertex="1" parent="1">
          <mxGeometry x="209" y="180" width="431" height="660" as="geometry" />
        </mxCell>
        <mxCell id="uRXTTBxz6ctKdjCjnKZ5-2" value="" style="rounded=1;whiteSpace=wrap;html=1;strokeColor=#10739e;fillColor=#b1ddf0;" vertex="1" parent="1">
          <mxGeometry x="279.5" y="245" width="290" height="530" as="geometry" />
        </mxCell>
        <mxCell id="uRXTTBxz6ctKdjCjnKZ5-4" value="&lt;font style=&quot;font-size: 20px;&quot;&gt;阴影区域&lt;/font&gt;" style="text;strokeColor=none;align=center;fillColor=none;html=1;verticalAlign=middle;whiteSpace=wrap;rounded=0;" vertex="1" parent="1">
          <mxGeometry x="380" y="790" width="120" height="30" as="geometry" />
        </mxCell>
        <mxCell id="uRXTTBxz6ctKdjCjnKZ5-6" value="&lt;font style=&quot;font-size: 20px;&quot;&gt;内容区域&lt;/font&gt;" style="text;strokeColor=none;align=center;fillColor=none;html=1;verticalAlign=middle;whiteSpace=wrap;rounded=0;" vertex="1" parent="1">
          <mxGeometry x="380" y="730" width="120" height="30" as="geometry" />
        </mxCell>
        <mxCell id="uRXTTBxz6ctKdjCjnKZ5-8" value="" style="endArrow=classic;html=1;rounded=0;exitX=-0.003;exitY=0.575;exitDx=0;exitDy=0;exitPerimeter=0;" edge="1" parent="1" source="uRXTTBxz6ctKdjCjnKZ5-1">
          <mxGeometry width="50" height="50" relative="1" as="geometry">
            <mxPoint x="380" y="520" as="sourcePoint" />
            <mxPoint x="150" y="580" as="targetPoint" />
          </mxGeometry>
        </mxCell>
        <mxCell id="uRXTTBxz6ctKdjCjnKZ5-9" value="&lt;font style=&quot;font-size: 20px;&quot;&gt;小窗实际大小&lt;/font&gt;" style="text;strokeColor=none;align=center;fillColor=none;html=1;verticalAlign=middle;whiteSpace=wrap;rounded=0;" vertex="1" parent="1">
          <mxGeometry x="40" y="590" width="150" height="30" as="geometry" />
        </mxCell>
        <mxCell id="uRXTTBxz6ctKdjCjnKZ5-10" value="" style="rounded=1;whiteSpace=wrap;html=1;fillColor=#dae8fc;strokeColor=#6c8ebf;gradientColor=#7ea6e0;" vertex="1" parent="1">
          <mxGeometry x="397.25" y="532" width="135.5" height="180" as="geometry" />
        </mxCell>
        <mxCell id="uRXTTBxz6ctKdjCjnKZ5-11" value="&lt;font style=&quot;font-size: 20px;&quot;&gt;兜底层&lt;/font&gt;" style="text;strokeColor=none;align=center;fillColor=none;html=1;verticalAlign=middle;whiteSpace=wrap;rounded=0;" vertex="1" parent="1">
          <mxGeometry x="405" y="672" width="120" height="30" as="geometry" />
        </mxCell>
        <mxCell id="uRXTTBxz6ctKdjCjnKZ5-12" value="" style="rounded=1;whiteSpace=wrap;html=1;fillColor=#f8cecc;gradientColor=#ea6b66;strokeColor=#b85450;" vertex="1" parent="1">
          <mxGeometry x="374.75" y="481" width="135.5" height="180" as="geometry" />
        </mxCell>
        <mxCell id="uRXTTBxz6ctKdjCjnKZ5-13" value="&lt;span style=&quot;font-size: 20px;&quot;&gt;视图层&lt;/span&gt;" style="text;strokeColor=none;align=center;fillColor=none;html=1;verticalAlign=middle;whiteSpace=wrap;rounded=0;" vertex="1" parent="1">
          <mxGeometry x="380.75" y="619" width="120" height="30" as="geometry" />
        </mxCell>
        <mxCell id="uRXTTBxz6ctKdjCjnKZ5-16" value="" style="rounded=1;whiteSpace=wrap;html=1;fillColor=#fff2cc;gradientColor=#ffd966;strokeColor=#d6b656;" vertex="1" parent="1">
          <mxGeometry x="347" y="426" width="135.5" height="180" as="geometry" />
        </mxCell>
        <mxCell id="uRXTTBxz6ctKdjCjnKZ5-17" value="&lt;span style=&quot;font-size: 20px;&quot;&gt;基础UI层&lt;/span&gt;" style="text;strokeColor=none;align=center;fillColor=none;html=1;verticalAlign=middle;whiteSpace=wrap;rounded=0;" vertex="1" parent="1">
          <mxGeometry x="355.75" y="566" width="120" height="30" as="geometry" />
        </mxCell>
        <mxCell id="uRXTTBxz6ctKdjCjnKZ5-14" value="" style="rounded=1;whiteSpace=wrap;html=1;fillColor=#d5e8d4;gradientColor=#97d077;strokeColor=#82b366;" vertex="1" parent="1">
          <mxGeometry x="323" y="370" width="135.5" height="180" as="geometry" />
        </mxCell>
        <mxCell id="uRXTTBxz6ctKdjCjnKZ5-15" value="&lt;span style=&quot;font-size: 20px;&quot;&gt;装饰层&lt;/span&gt;" style="text;strokeColor=none;align=center;fillColor=none;html=1;verticalAlign=middle;whiteSpace=wrap;rounded=0;" vertex="1" parent="1">
          <mxGeometry x="334.75" y="509" width="120" height="30" as="geometry" />
        </mxCell>
        <mxCell id="ib8Jx1LlxUVi2_JOXiX3-1" value="" style="rounded=1;whiteSpace=wrap;html=1;fillColor=#f5f5f5;gradientColor=#b3b3b3;strokeColor=#666666;" vertex="1" parent="1">
          <mxGeometry x="294.25" y="320" width="135.5" height="180" as="geometry" />
        </mxCell>
        <mxCell id="ib8Jx1LlxUVi2_JOXiX3-2" value="&lt;span style=&quot;font-size: 20px;&quot;&gt;贴边蒙层&lt;/span&gt;" style="text;strokeColor=none;align=center;fillColor=none;html=1;verticalAlign=middle;whiteSpace=wrap;rounded=0;" vertex="1" parent="1">
          <mxGeometry x="302" y="459" width="120" height="30" as="geometry" />
        </mxCell>
      </root>
    </mxGraphModel>
  </diagram>
  <diagram name="第 4 页" id="j1qpqO9ZF7Ao_pBG1S5J">
    <mxGraphModel dx="1990" dy="1100" grid="1" gridSize="10" guides="1" tooltips="1" connect="1" arrows="1" fold="1" page="1" pageScale="1" pageWidth="827" pageHeight="1169" math="0" shadow="0">
      <root>
        <mxCell id="YAfCnvU4UHxf-HP9taOX-0" />
        <mxCell id="YAfCnvU4UHxf-HP9taOX-1" parent="YAfCnvU4UHxf-HP9taOX-0" />
        <mxCell id="AMIlLPbcCtH6dh6R-egB-2" value="" style="rounded=1;whiteSpace=wrap;html=1;dashed=1;dashPattern=12 12;" vertex="1" parent="YAfCnvU4UHxf-HP9taOX-1">
          <mxGeometry x="210" y="180" width="660" height="670" as="geometry" />
        </mxCell>
        <mxCell id="YAfCnvU4UHxf-HP9taOX-2" value="" style="rounded=1;whiteSpace=wrap;html=1;fillColor=#eeeeee;strokeColor=#B3B3B3;dashed=1;" vertex="1" parent="YAfCnvU4UHxf-HP9taOX-1">
          <mxGeometry x="209" y="180" width="661" height="490" as="geometry" />
        </mxCell>
        <mxCell id="YAfCnvU4UHxf-HP9taOX-3" value="" style="rounded=1;whiteSpace=wrap;html=1;strokeColor=#10739e;fillColor=#b1ddf0;" vertex="1" parent="YAfCnvU4UHxf-HP9taOX-1">
          <mxGeometry x="279.5" y="245" width="520.5" height="335" as="geometry" />
        </mxCell>
        <mxCell id="YAfCnvU4UHxf-HP9taOX-4" value="&lt;font style=&quot;font-size: 20px;&quot;&gt;阴影区域&lt;/font&gt;" style="text;strokeColor=none;align=center;fillColor=none;html=1;verticalAlign=middle;whiteSpace=wrap;rounded=0;" vertex="1" parent="YAfCnvU4UHxf-HP9taOX-1">
          <mxGeometry x="479.5" y="630" width="120" height="30" as="geometry" />
        </mxCell>
        <mxCell id="YAfCnvU4UHxf-HP9taOX-5" value="&lt;font style=&quot;font-size: 20px;&quot;&gt;内容区域&lt;/font&gt;" style="text;strokeColor=none;align=center;fillColor=none;html=1;verticalAlign=middle;whiteSpace=wrap;rounded=0;" vertex="1" parent="YAfCnvU4UHxf-HP9taOX-1">
          <mxGeometry x="470" y="530" width="120" height="30" as="geometry" />
        </mxCell>
        <mxCell id="YAfCnvU4UHxf-HP9taOX-6" value="" style="endArrow=classic;html=1;rounded=0;exitX=0;exitY=0.828;exitDx=0;exitDy=0;exitPerimeter=0;" edge="1" parent="YAfCnvU4UHxf-HP9taOX-1" source="AMIlLPbcCtH6dh6R-egB-2">
          <mxGeometry width="50" height="50" relative="1" as="geometry">
            <mxPoint x="380" y="520" as="sourcePoint" />
            <mxPoint x="150" y="580" as="targetPoint" />
          </mxGeometry>
        </mxCell>
        <mxCell id="YAfCnvU4UHxf-HP9taOX-7" value="&lt;font style=&quot;font-size: 30px;&quot;&gt;最小高度&lt;/font&gt;" style="text;strokeColor=none;align=center;fillColor=none;html=1;verticalAlign=middle;whiteSpace=wrap;rounded=0;" vertex="1" parent="YAfCnvU4UHxf-HP9taOX-1">
          <mxGeometry x="950" y="390" width="40" height="210" as="geometry" />
        </mxCell>
        <mxCell id="YAfCnvU4UHxf-HP9taOX-8" value="" style="rounded=1;whiteSpace=wrap;html=1;fillColor=#dae8fc;strokeColor=#6c8ebf;gradientColor=#7ea6e0;" vertex="1" parent="YAfCnvU4UHxf-HP9taOX-1">
          <mxGeometry x="584" y="320" width="135.5" height="180" as="geometry" />
        </mxCell>
        <mxCell id="YAfCnvU4UHxf-HP9taOX-9" value="&lt;font style=&quot;font-size: 20px;&quot;&gt;兜底层&lt;/font&gt;" style="text;strokeColor=none;align=center;fillColor=none;html=1;verticalAlign=middle;whiteSpace=wrap;rounded=0;" vertex="1" parent="YAfCnvU4UHxf-HP9taOX-1">
          <mxGeometry x="670" y="336.25" width="30" height="132.5" as="geometry" />
        </mxCell>
        <mxCell id="YAfCnvU4UHxf-HP9taOX-10" value="" style="rounded=1;whiteSpace=wrap;html=1;fillColor=#f8cecc;gradientColor=#ea6b66;strokeColor=#b85450;" vertex="1" parent="YAfCnvU4UHxf-HP9taOX-1">
          <mxGeometry x="518.75" y="322.5" width="135.5" height="180" as="geometry" />
        </mxCell>
        <mxCell id="YAfCnvU4UHxf-HP9taOX-11" value="&lt;span style=&quot;font-size: 20px;&quot;&gt;视图层&lt;/span&gt;" style="text;strokeColor=none;align=center;fillColor=none;html=1;verticalAlign=middle;whiteSpace=wrap;rounded=0;" vertex="1" parent="YAfCnvU4UHxf-HP9taOX-1">
          <mxGeometry x="603" y="331.5" width="34.5" height="142.5" as="geometry" />
        </mxCell>
        <mxCell id="YAfCnvU4UHxf-HP9taOX-12" value="" style="rounded=1;whiteSpace=wrap;html=1;fillColor=#fff2cc;gradientColor=#ffd966;strokeColor=#d6b656;" vertex="1" parent="YAfCnvU4UHxf-HP9taOX-1">
          <mxGeometry x="450" y="320" width="135.5" height="180" as="geometry" />
        </mxCell>
        <mxCell id="YAfCnvU4UHxf-HP9taOX-13" value="&lt;span style=&quot;font-size: 20px;&quot;&gt;基础UI层&lt;/span&gt;" style="text;strokeColor=none;align=center;fillColor=none;html=1;verticalAlign=middle;whiteSpace=wrap;rounded=0;" vertex="1" parent="YAfCnvU4UHxf-HP9taOX-1">
          <mxGeometry x="530.75" y="340" width="39.25" height="150" as="geometry" />
        </mxCell>
        <mxCell id="YAfCnvU4UHxf-HP9taOX-14" value="" style="rounded=1;whiteSpace=wrap;html=1;fillColor=#d5e8d4;gradientColor=#97d077;strokeColor=#82b366;" vertex="1" parent="YAfCnvU4UHxf-HP9taOX-1">
          <mxGeometry x="385.75" y="322.5" width="135.5" height="180" as="geometry" />
        </mxCell>
        <mxCell id="YAfCnvU4UHxf-HP9taOX-15" value="&lt;span style=&quot;font-size: 20px;&quot;&gt;装饰层&lt;/span&gt;" style="text;strokeColor=none;align=center;fillColor=none;html=1;verticalAlign=middle;whiteSpace=wrap;rounded=0;" vertex="1" parent="YAfCnvU4UHxf-HP9taOX-1">
          <mxGeometry x="470" y="332.5" width="40" height="140" as="geometry" />
        </mxCell>
        <mxCell id="YAfCnvU4UHxf-HP9taOX-16" value="" style="rounded=1;whiteSpace=wrap;html=1;fillColor=#f5f5f5;gradientColor=#b3b3b3;strokeColor=#666666;" vertex="1" parent="YAfCnvU4UHxf-HP9taOX-1">
          <mxGeometry x="324.25" y="320" width="135.5" height="180" as="geometry" />
        </mxCell>
        <mxCell id="YAfCnvU4UHxf-HP9taOX-17" value="&lt;span style=&quot;font-size: 20px;&quot;&gt;贴边蒙层&lt;/span&gt;" style="text;strokeColor=none;align=center;fillColor=none;html=1;verticalAlign=middle;whiteSpace=wrap;rounded=0;" vertex="1" parent="YAfCnvU4UHxf-HP9taOX-1">
          <mxGeometry x="414" y="347.5" width="30" height="130" as="geometry" />
        </mxCell>
        <mxCell id="AMIlLPbcCtH6dh6R-egB-5" value="" style="endArrow=classic;startArrow=classic;html=1;rounded=0;" edge="1" parent="YAfCnvU4UHxf-HP9taOX-1">
          <mxGeometry width="50" height="50" relative="1" as="geometry">
            <mxPoint x="920" y="850" as="sourcePoint" />
            <mxPoint x="920" y="190" as="targetPoint" />
          </mxGeometry>
        </mxCell>
        <mxCell id="AMIlLPbcCtH6dh6R-egB-6" value="" style="endArrow=none;html=1;rounded=0;strokeWidth=3;" edge="1" parent="YAfCnvU4UHxf-HP9taOX-1">
          <mxGeometry width="50" height="50" relative="1" as="geometry">
            <mxPoint x="882" y="188" as="sourcePoint" />
            <mxPoint x="952" y="188" as="targetPoint" />
          </mxGeometry>
        </mxCell>
        <mxCell id="AMIlLPbcCtH6dh6R-egB-8" value="" style="endArrow=none;html=1;rounded=0;strokeWidth=3;" edge="1" parent="YAfCnvU4UHxf-HP9taOX-1">
          <mxGeometry width="50" height="50" relative="1" as="geometry">
            <mxPoint x="880" y="850" as="sourcePoint" />
            <mxPoint x="950" y="850" as="targetPoint" />
          </mxGeometry>
        </mxCell>
        <mxCell id="AMIlLPbcCtH6dh6R-egB-14" value="Text" style="text;strokeColor=none;align=center;fillColor=none;html=1;verticalAlign=middle;whiteSpace=wrap;rounded=0;" vertex="1" parent="YAfCnvU4UHxf-HP9taOX-1">
          <mxGeometry x="730" y="490" width="60" height="30" as="geometry" />
        </mxCell>
        <mxCell id="xv12I-Atc2RVAztGiHSa-0" value="&lt;font style=&quot;font-size: 22px;&quot;&gt;小窗实际大小&lt;/font&gt;" style="text;strokeColor=none;align=center;fillColor=none;html=1;verticalAlign=middle;whiteSpace=wrap;rounded=0;" vertex="1" parent="YAfCnvU4UHxf-HP9taOX-1">
          <mxGeometry x="23" y="540" width="211" height="30" as="geometry" />
        </mxCell>
      </root>
    </mxGraphModel>
  </diagram>
  <diagram id="BpFz8qAPyllwxGUtWWcI" name="第 5 页">
    <mxGraphModel dx="1085" dy="600" grid="1" gridSize="10" guides="1" tooltips="1" connect="1" arrows="1" fold="1" page="1" pageScale="1" pageWidth="827" pageHeight="1169" math="0" shadow="0">
      <root>
        <mxCell id="0" />
        <mxCell id="1" parent="0" />
        <mxCell id="hZmg-CnsBAUVgVJB9iKg-1" value="" style="rounded=1;whiteSpace=wrap;html=1;dashed=1;fillColor=#b0e3e6;strokeColor=#0e8088;" vertex="1" parent="1">
          <mxGeometry x="150" y="80" width="560" height="540" as="geometry" />
        </mxCell>
        <mxCell id="ehSS_O1qbaca3HEzMNsD-1" value="" style="rounded=1;whiteSpace=wrap;html=1;fillColor=#d5e8d4;strokeColor=#82b366;" vertex="1" parent="1">
          <mxGeometry x="205" y="395" width="450" height="190" as="geometry" />
        </mxCell>
        <mxCell id="lM_DW2QmBqRq9tqNnUau-1" value="" style="rounded=1;whiteSpace=wrap;html=1;fillColor=#dae8fc;strokeColor=#6c8ebf;" vertex="1" parent="1">
          <mxGeometry x="200" y="130" width="450" height="190" as="geometry" />
        </mxCell>
        <mxCell id="YWGSA-CLwHYcsnl8aUVo-1" value="&lt;font style=&quot;font-size: 22px;&quot;&gt;基础小窗组件&lt;/font&gt;" style="text;strokeColor=none;align=center;fillColor=none;html=1;verticalAlign=middle;whiteSpace=wrap;rounded=0;" vertex="1" parent="1">
          <mxGeometry x="342" y="540" width="160" height="30" as="geometry" />
        </mxCell>
        <mxCell id="YWGSA-CLwHYcsnl8aUVo-2" value="&lt;font style=&quot;font-size: 22px;&quot;&gt;直播业务组件&lt;/font&gt;" style="text;strokeColor=none;align=center;fillColor=none;html=1;verticalAlign=middle;whiteSpace=wrap;rounded=0;" vertex="1" parent="1">
          <mxGeometry x="360" y="280" width="140" height="30" as="geometry" />
        </mxCell>
        <mxCell id="OfWe08N61hV7Thx31iJU-1" value="&lt;font style=&quot;font-size: 15px;&quot;&gt;单例&lt;/font&gt;" style="text;strokeColor=none;align=center;fillColor=none;html=1;verticalAlign=middle;whiteSpace=wrap;rounded=0;" vertex="1" parent="1">
          <mxGeometry x="580" y="410" width="70" height="30" as="geometry" />
        </mxCell>
        <mxCell id="OfWe08N61hV7Thx31iJU-2" value="自动贴边" style="rounded=1;whiteSpace=wrap;html=1;" vertex="1" parent="1">
          <mxGeometry x="220" y="420" width="110" height="40" as="geometry" />
        </mxCell>
        <mxCell id="GgZAHn1z-DLiYfRyLd_a-1" value="贴边隐藏" style="rounded=1;whiteSpace=wrap;html=1;" vertex="1" parent="1">
          <mxGeometry x="340" y="420" width="110" height="40" as="geometry" />
        </mxCell>
        <mxCell id="GgZAHn1z-DLiYfRyLd_a-2" value="安全边距" style="rounded=1;whiteSpace=wrap;html=1;" vertex="1" parent="1">
          <mxGeometry x="470" y="420" width="110" height="40" as="geometry" />
        </mxCell>
        <mxCell id="GgZAHn1z-DLiYfRyLd_a-3" value="装饰设置" style="rounded=1;whiteSpace=wrap;html=1;" vertex="1" parent="1">
          <mxGeometry x="220" y="480" width="110" height="40" as="geometry" />
        </mxCell>
        <mxCell id="GgZAHn1z-DLiYfRyLd_a-4" value="层级设置" style="rounded=1;whiteSpace=wrap;html=1;" vertex="1" parent="1">
          <mxGeometry x="340" y="480" width="110" height="40" as="geometry" />
        </mxCell>
        <mxCell id="GgZAHn1z-DLiYfRyLd_a-5" value="阴影设置" style="rounded=1;whiteSpace=wrap;html=1;" vertex="1" parent="1">
          <mxGeometry x="470" y="480" width="110" height="40" as="geometry" />
        </mxCell>
        <mxCell id="GgZAHn1z-DLiYfRyLd_a-6" value="" style="shape=flexArrow;endArrow=classic;html=1;rounded=0;exitX=0.5;exitY=0;exitDx=0;exitDy=0;entryX=0.511;entryY=1.011;entryDx=0;entryDy=0;entryPerimeter=0;" edge="1" parent="1" source="ehSS_O1qbaca3HEzMNsD-1" target="lM_DW2QmBqRq9tqNnUau-1">
          <mxGeometry width="50" height="50" relative="1" as="geometry">
            <mxPoint x="480" y="350" as="sourcePoint" />
            <mxPoint x="530" y="300" as="targetPoint" />
          </mxGeometry>
        </mxCell>
        <mxCell id="GgZAHn1z-DLiYfRyLd_a-7" value="直播数据接口请求" style="rounded=1;whiteSpace=wrap;html=1;" vertex="1" parent="1">
          <mxGeometry x="232" y="170" width="110" height="40" as="geometry" />
        </mxCell>
        <mxCell id="GgZAHn1z-DLiYfRyLd_a-8" value="利益点装饰" style="rounded=1;whiteSpace=wrap;html=1;" vertex="1" parent="1">
          <mxGeometry x="372" y="170" width="110" height="40" as="geometry" />
        </mxCell>
        <mxCell id="GgZAHn1z-DLiYfRyLd_a-9" value="播放器视图设置" style="rounded=1;whiteSpace=wrap;html=1;" vertex="1" parent="1">
          <mxGeometry x="502" y="170" width="110" height="40" as="geometry" />
        </mxCell>
        <mxCell id="GgZAHn1z-DLiYfRyLd_a-10" value="直播,回放,讲解,预告&lt;br&gt;四种样式" style="rounded=1;whiteSpace=wrap;html=1;" vertex="1" parent="1">
          <mxGeometry x="232" y="230" width="110" height="40" as="geometry" />
        </mxCell>
        <mxCell id="GgZAHn1z-DLiYfRyLd_a-11" value="首帧显示小窗" style="rounded=1;whiteSpace=wrap;html=1;" vertex="1" parent="1">
          <mxGeometry x="372" y="230" width="110" height="40" as="geometry" />
        </mxCell>
        <mxCell id="GgZAHn1z-DLiYfRyLd_a-12" value="……" style="rounded=1;whiteSpace=wrap;html=1;" vertex="1" parent="1">
          <mxGeometry x="590" y="480" width="50" height="40" as="geometry" />
        </mxCell>
        <mxCell id="GgZAHn1z-DLiYfRyLd_a-13" value="……" style="rounded=1;whiteSpace=wrap;html=1;" vertex="1" parent="1">
          <mxGeometry x="542" y="230" width="50" height="40" as="geometry" />
        </mxCell>
        <mxCell id="U04bZ9f3YcaOOjGiaRkk-1" value="&lt;font style=&quot;font-size: 15px;&quot;&gt;构造者模式&lt;/font&gt;" style="text;strokeColor=none;align=center;fillColor=none;html=1;verticalAlign=middle;whiteSpace=wrap;rounded=0;" vertex="1" parent="1">
          <mxGeometry x="560" y="140" width="80" height="30" as="geometry" />
        </mxCell>
        <mxCell id="p6mFdIca3NIZDtBPG11r-1" value="&lt;font color=&quot;#666666&quot;&gt;内聚&lt;/font&gt;" style="rounded=1;whiteSpace=wrap;html=1;fillColor=none;dashed=1;" vertex="1" parent="1">
          <mxGeometry x="655" y="170" width="25" height="60" as="geometry" />
        </mxCell>
        <mxCell id="p6mFdIca3NIZDtBPG11r-2" value="&lt;font color=&quot;#666666&quot;&gt;耦合&lt;/font&gt;" style="rounded=1;whiteSpace=wrap;html=1;fillColor=none;dashed=1;" vertex="1" parent="1">
          <mxGeometry x="450" y="330" width="25" height="60" as="geometry" />
        </mxCell>
      </root>
    </mxGraphModel>
  </diagram>
</mxfile>
